<?xml version="1.0" encoding="UTF-8"?>
<svg width="12px" height="14px" viewBox="0 0 12 14" version="1.1" xmlns="http://www.w3.org/2000/svg" xmlns:xlink="http://www.w3.org/1999/xlink">
    <!-- Generator: sketchtool 61 (101010) - https://sketch.com -->
    <title>88AAEE27-DAE3-4E7C-8FFC-D6CA09E6E4B9</title>
    <desc>Created with sketchtool.</desc>
    <defs>
        <path d="M4.89151044,9 L9.92348621,13.7309435 C10.2322733,14.0212578 10.2322733,14.4919501 9.92348621,14.7822643 C9.61469916,15.0725786 9.11405643,15.0725786 8.80526937,14.7822643 L3.23626863,9.54642273 C2.9344877,9.2626955 2.91985228,8.78804735 3.2035795,8.48626641 C3.21413738,8.47503672 3.22503894,8.46413516 3.23626863,8.45357727 L8.80526937,3.21773566 C9.11405643,2.92742145 9.61469916,2.92742145 9.92348621,3.21773566 C10.2322733,3.50804988 10.2322733,3.97874223 9.92348621,4.26905645 L4.89151044,9 Z M10.8915104,9 L15.9234862,13.7309435 C16.2322733,14.0212578 16.2322733,14.4919501 15.9234862,14.7822643 C15.6146992,15.0725786 15.1140564,15.0725786 14.8052694,14.7822643 L9.23626863,9.54642273 C8.9344877,9.2626955 8.91985228,8.78804735 9.2035795,8.48626641 C9.21413738,8.47503672 9.22503894,8.46413516 9.23626863,8.45357727 L14.8052694,3.21773566 C15.1140564,2.92742145 15.6146992,2.92742145 15.9234862,3.21773566 C16.2322733,3.50804988 16.2322733,3.97874223 15.9234862,4.26905645 L10.8915104,9 Z" id="path-1"></path>
    </defs>
    <g id="Final---Mobile" stroke="none" stroke-width="1" fill="none" fill-rule="evenodd">
        <g id="Survey-options---RS,-AT-v2-amends" transform="translate(-226.000000, -1345.000000)">
            <g id="Navigation" transform="translate(44.000000, 934.000000)">
                <g id="Nav-menu">
                    <g id="Nav" transform="translate(169.000000, 400.000000)">
                        <g id="12px-Glyphs/chevronDoubleRight" transform="translate(19.000000, 19.000000) rotate(-90.000000) translate(-19.000000, -19.000000) translate(10.000000, 10.000000)">
                            <mask id="mask-2" fill="white">
                                <use xlink:href="#path-1"></use>
                            </mask>
                            <use id="Mask" fill="#000000" transform="translate(9.577538, 9.000000) scale(-1, 1) translate(-9.577538, -9.000000) " xlink:href="#path-1"></use>
                        </g>
                    </g>
                </g>
            </g>
        </g>
    </g>
</svg>
